<svg xmlns="http://www.w3.org/2000/svg" viewBox="-19016.287 -18095 228.639 26.809"><defs><style>.cls-1{fill:#fff}</style></defs><g id="Group_13571" data-name="Group 13571" transform="translate(-19386 -23067.999)"><path id="Path_32186" data-name="Path 32186" class="cls-1" d="M127.459 16.526c-.5 4.551-3.484 8.249-8.249 8.249-6.684 0-9.6-5.547-9.671-11.093v-.427c.071-5.547 2.987-11.093 9.671-11.093a7.781 7.781 0 0 1 7.89 6.258h2.418C128.811 3.016 124.046.1 119.14.1a11.266 11.266 0 0 0-10.951 7.04A11.266 11.266 0 0 0 97.238.1c-4.907 0-9.671 2.987-10.382 8.32h2.418a7.781 7.781 0 0 1 7.893-6.258c6.684 0 9.6 5.547 9.671 11.093v.427c-.071 5.547-2.987 11.093-9.671 11.093-4.764 0-7.822-3.7-8.249-8.249H86.5c.711 6.329 4.693 10.382 10.738 10.382a11.266 11.266 0 0 0 10.951-7.04 11.266 11.266 0 0 0 10.951 7.04c6.044 0 10.027-3.982 10.738-10.382h-2.418z" transform="translate(283.213 4972.9)"/><g id="Group_13232" data-name="Group 13232" transform="translate(424.509 4977.152)"><path id="Path_32187" data-name="Path 32187" class="cls-1" d="M8.484 57.4a2.985 2.985 0 0 0-3.2-2.679c-2.6 0-3.944 2.381-3.944 4.763s1.34 4.837 3.944 4.837a3.336 3.336 0 0 0 3.274-3.2H9.9c-.372 2.754-2.084 4.391-4.614 4.391C1.86 65.507 0 62.754 0 59.554S1.86 53.6 5.284 53.6a4.182 4.182 0 0 1 4.54 3.87h-1.34z" transform="translate(0 -49.507)"/><path id="Path_32188" data-name="Path 32188" class="cls-1" d="M16 48.2h1.34v15.554H16z" transform="translate(-4.093 -48.126)"/><path id="Path_32189" data-name="Path 32189" class="cls-1" d="M21.94 59.8c0 2.009 1.116 4.391 3.721 4.391a3.356 3.356 0 0 0 3.5-2.9h1.414c-.6 2.53-2.084 4.019-4.912 4.019-3.572 0-5.061-2.754-5.061-5.954 0-2.977 1.488-5.954 5.061-5.954s5.061 3.126 4.912 6.326H21.94zm7.293-1.116c-.074-2.084-1.34-4.019-3.572-4.019s-3.5 1.935-3.721 4.019z" transform="translate(-5.27 -49.456)"/><path id="Path_32190" data-name="Path 32190" class="cls-1" d="M34.8 54h1.488l3.5 9.9h.074l3.571-9.9h1.414l-4.168 11.237h-1.488z" transform="translate(-8.902 -49.609)"/><path id="Path_32191" data-name="Path 32191" class="cls-1" d="M50.714 59.8c0 2.009 1.116 4.391 3.721 4.391a3.356 3.356 0 0 0 3.5-2.9h1.34c-.6 2.53-2.084 4.019-4.912 4.019-3.572 0-5.061-2.754-5.061-5.954 0-2.977 1.488-5.954 5.061-5.954s5.061 3.126 4.912 6.326h-8.561zm7.293-1.116c-.074-2.084-1.34-4.019-3.572-4.019s-3.5 1.935-3.721 4.019z" transform="translate(-12.611 -49.456)"/><path id="Path_32192" data-name="Path 32192" class="cls-1" d="M65.3 48.2h1.34v15.554H65.3z" transform="translate(-16.704 -48.126)"/><path id="Path_32193" data-name="Path 32193" class="cls-1" d="M70.321 57.3c.149-2.6 1.935-3.8 4.54-3.8 2.009 0 4.168.6 4.168 3.647V63.1a.745.745 0 0 0 .819.819.944.944 0 0 0 .447-.074v1.191a3.336 3.336 0 0 1-.893.074c-1.414 0-1.637-.819-1.637-1.935h-.074a4.256 4.256 0 0 1-4.091 2.307c-2.084 0-3.8-1.042-3.8-3.274 0-3.126 3.051-3.274 6.028-3.647 1.116-.074 1.786-.3 1.786-1.488 0-1.861-1.34-2.307-2.977-2.307-1.712 0-2.977.819-2.977 2.6h-1.34zm7.368 1.637a2.179 2.179 0 0 1-1.191.521c-2.307.447-5.209.447-5.209 2.6a2.361 2.361 0 0 0 2.53 2.233c2.084 0 3.944-1.34 3.944-3.5v-1.858z" transform="translate(-17.855 -49.481)"/><path id="Path_32194" data-name="Path 32194" class="cls-1" d="M85.8 53.9h1.34v1.935h.074a3.818 3.818 0 0 1 3.572-2.235c3.126 0 4.093 1.637 4.093 4.316v7.219H93.54v-7c0-1.935-.6-3.423-2.828-3.423s-3.5 1.637-3.5 3.87v6.549h-1.34V53.9z" transform="translate(-21.948 -49.507)"/><path id="Path_32195" data-name="Path 32195" class="cls-1" d="M111.319 63.728h-1.265V61.57h-.074a4.416 4.416 0 0 1-4.019 2.456c-3.423 0-5.061-2.754-5.061-5.954s1.637-5.954 5.061-5.954a3.907 3.907 0 0 1 3.87 2.456h.074V48.1h1.34v15.628zm-5.358-.819c2.9 0 3.944-2.456 3.944-4.763s-1.042-4.763-3.944-4.763c-2.6 0-3.647 2.456-3.647 4.763s1.042 4.764 3.647 4.764z" transform="translate(-25.81 -48.1)"/><path id="Path_32196" data-name="Path 32196" class="cls-1" d="M126.084 57.37a2.985 2.985 0 0 0-3.2-2.679c-2.6 0-3.944 2.381-3.944 4.763s1.34 4.763 3.944 4.763a3.336 3.336 0 0 0 3.274-3.2h1.34c-.372 2.754-2.084 4.391-4.614 4.391-3.423 0-5.284-2.754-5.284-5.954s1.86-5.954 5.284-5.954a4.182 4.182 0 0 1 4.54 3.87z" transform="translate(-30.082 -49.481)"/><path id="Path_32197" data-name="Path 32197" class="cls-1" d="M143.468 59.454c0 3.2-1.86 5.954-5.284 5.954s-5.284-2.754-5.284-5.954 1.86-5.954 5.284-5.954 5.284 2.754 5.284 5.954zm-9.228 0c0 2.381 1.34 4.763 3.944 4.763s3.944-2.381 3.944-4.763-1.34-4.763-3.944-4.763-3.944 2.381-3.944 4.763z" transform="translate(-33.996 -49.481)"/><path id="Path_32198" data-name="Path 32198" class="cls-1" d="M149.9 48.2h1.34v15.554h-1.34z" transform="translate(-38.345 -48.126)"/><path id="Path_32199" data-name="Path 32199" class="cls-1" d="M155.3 48.2h1.34v15.554h-1.34z" transform="translate(-39.726 -48.126)"/><path id="Path_32200" data-name="Path 32200" class="cls-1" d="M161.314 59.8c0 2.009 1.116 4.391 3.721 4.391a3.356 3.356 0 0 0 3.5-2.9h1.34c-.6 2.53-2.084 4.019-4.912 4.019-3.572 0-5.061-2.754-5.061-5.954 0-2.977 1.488-5.954 5.061-5.954s5.061 3.126 4.912 6.326h-8.558zm7.219-1.116c-.074-2.084-1.34-4.019-3.572-4.019s-3.5 1.935-3.721 4.019z" transform="translate(-40.903 -49.456)"/><path id="Path_32201" data-name="Path 32201" class="cls-1" d="M183.584 57.37a2.985 2.985 0 0 0-3.2-2.679c-2.6 0-3.944 2.381-3.944 4.763s1.34 4.763 3.944 4.763a3.336 3.336 0 0 0 3.274-3.2H185c-.372 2.754-2.084 4.391-4.614 4.391-3.423 0-5.284-2.754-5.284-5.954s1.86-5.954 5.284-5.954a4.182 4.182 0 0 1 4.54 3.87z" transform="translate(-44.791 -49.481)"/><path id="Path_32202" data-name="Path 32202" class="cls-1" d="M192.874 52.849h2.307v1.191h-2.307v7.59c0 .893.149 1.414 1.116 1.488a6.4 6.4 0 0 0 1.191-.074v1.191c-.447 0-.819.074-1.191.074-1.861 0-2.456-.6-2.456-2.53v-7.814H189.6v-1.116h1.935V49.5h1.34z" transform="translate(-48.5 -48.458)"/><path id="Path_32203" data-name="Path 32203" class="cls-1" d="M199.7 48.2h1.34v2.233h-1.34zm0 4.316h1.34v11.238h-1.34z" transform="translate(-51.084 -48.126)"/><path id="Path_32204" data-name="Path 32204" class="cls-1" d="M214.968 59.454c0 3.2-1.86 5.954-5.284 5.954s-5.284-2.754-5.284-5.954 1.86-5.954 5.284-5.954 5.284 2.754 5.284 5.954zm-9.228 0c0 2.381 1.34 4.763 3.944 4.763s3.944-2.381 3.944-4.763-1.34-4.763-3.944-4.763-3.944 2.381-3.944 4.763z" transform="translate(-52.286 -49.481)"/><path id="Path_32205" data-name="Path 32205" class="cls-1" d="M221.4 53.9h1.34v1.935h.074a3.818 3.818 0 0 1 3.572-2.233c3.126 0 4.093 1.637 4.093 4.316v7.219h-1.34v-7c0-1.935-.6-3.423-2.828-3.423s-3.5 1.637-3.5 3.87v6.549h-1.34V53.9z" transform="translate(-56.634 -49.507)"/></g></g></svg>