<svg xmlns="http://www.w3.org/2000/svg" viewBox="-12055 -18179 227.313 32.707"><defs><style>.cls-1{fill:#fff}</style></defs><g id="Group_13231" data-name="Group 13231" transform="translate(-12055 -18179.125)"><path id="Path_32170" data-name="Path 32170" class="cls-1" d="M239.132 20.349a.906.906 0 0 0-.438-.613 19.508 19.508 0 0 0-11.475-2.409A19.483 19.483 0 0 0 230.9 5.983a.856.856 0 0 0-.307-.657.916.916 0 0 0-.745-.175 19.482 19.482 0 0 0-9.811 5.212 19.259 19.259 0 0 0-4.249-9.942.927.927 0 0 0-1.358 0 19.259 19.259 0 0 0-4.248 9.942 19.482 19.482 0 0 0-9.811-5.212.916.916 0 0 0-.745.175.788.788 0 0 0-.307.657A19.483 19.483 0 0 0 203 17.327a19.37 19.37 0 0 0-11.475 2.409.906.906 0 0 0-.438.613.808.808 0 0 0 .219.7 19.686 19.686 0 0 0 11.388 6.438 20.9 20.9 0 0 0 3.329.263 16.7 16.7 0 0 0 2.584-.175c.876 1.927 2.978 3.723 6.176 5.168a1.031 1.031 0 0 0 .35.088.825.825 0 0 0 .35-.088c3.2-1.445 5.3-3.241 6.176-5.168a17.471 17.471 0 0 0 2.584.175 21.736 21.736 0 0 0 3.329-.263 19.223 19.223 0 0 0 11.388-6.438.944.944 0 0 0 .172-.7zM229.059 7.078a17.428 17.428 0 0 1-3.986 10.074 3.111 3.111 0 0 1-.526.569c-.131.044-.219.044-.35.088s-.219.044-.35.088a2.469 2.469 0 0 0-.526.175c-.088.044-.175.044-.263.088l-.788.263a.043.043 0 0 0-.044.044c-.263.088-.526.219-.745.307l-.263.131a2.679 2.679 0 0 1-.526.219c-.088.044-.219.088-.307.131a2.347 2.347 0 0 1-.482.219c-.088.044-.219.131-.307.175-.131.088-.307.175-.438.263-.088.044-.219.131-.307.175s-.131.088-.219.131a19.051 19.051 0 0 0 1.489-7.489v-.044a18.029 18.029 0 0 1 8.938-5.607zm-13.972-4.73a17.716 17.716 0 0 1 3.329 9.986v.35a17.238 17.238 0 0 1-1.577 7.27 17.471 17.471 0 0 1-1.752 3.022 17.47 17.47 0 0 1-1.752-3.022 17.238 17.238 0 0 1-1.577-7.27v-.35a17.716 17.716 0 0 1 3.329-9.986zm-5.081 10.38v.044a19.862 19.862 0 0 0 1.489 7.489c-.088-.044-.131-.088-.219-.131s-.219-.131-.307-.175c-.131-.088-.307-.175-.438-.263-.088-.044-.219-.131-.307-.175-.175-.088-.307-.175-.482-.263a2.136 2.136 0 0 0-.307-.131l-.526-.263-.263-.131c-.526-.219-1.051-.438-1.621-.613-.088-.044-.175-.044-.263-.088-.175-.044-.35-.131-.569-.175-.088-.044-.219-.044-.307-.088a1.354 1.354 0 0 0-.35-.088c-.175-.219-.35-.394-.482-.569a17.726 17.726 0 0 1-3.986-10.074 18.188 18.188 0 0 1 8.938 5.694zm-7.1 13.052a17.643 17.643 0 0 1-9.592-5.037 17.794 17.794 0 0 1 10.736-1.533 5.632 5.632 0 0 1 .832.175 17.1 17.1 0 0 1 4.6 1.708 15.1 15.1 0 0 1 1.4.876 19.189 19.189 0 0 1 2.715 2.278c-.044 0-.088.044-.131.044a10.022 10.022 0 0 1-1.007.438c-.044 0-.044.044-.088.044a8.518 8.518 0 0 1-.964.35c-.044 0-.131.044-.175.044-.35.088-.7.219-1.051.307-.088 0-.131.044-.219.044a9.685 9.685 0 0 1-1.095.219 16.01 16.01 0 0 1-5.956.043zm12.176 5.212a10.809 10.809 0 0 1-4.73-3.723c.044 0 .088-.044.175-.044.307-.088.613-.175.964-.263.044 0 .131-.044.175-.044a9.855 9.855 0 0 0 1.051-.35c.088-.044.175-.044.263-.088l.92-.394c.044 0 .088-.044.131-.044.35-.175.657-.307 1.007-.482.044 0 .088-.044.131-.044a.153.153 0 0 1 .088.044 10.526 10.526 0 0 0 1.007.482c.044 0 .088.044.131.044l.92.394c.088.044.175.044.263.088a9.856 9.856 0 0 0 1.051.35c.044 0 .131.044.175.044.307.088.613.175.964.263.044 0 .088.044.131.044a11.714 11.714 0 0 1-4.812 3.723zm12.132-5.212a17.508 17.508 0 0 1-6.044 0 9.685 9.685 0 0 1-1.095-.219c-.088 0-.131-.044-.219-.044a9.512 9.512 0 0 1-1.051-.307c-.044 0-.131-.044-.175-.044a8.521 8.521 0 0 1-.964-.35c-.044 0-.044-.044-.088-.044-.35-.131-.657-.307-1.007-.438a.153.153 0 0 1-.088-.044 19.188 19.188 0 0 1 2.715-2.278 17.822 17.822 0 0 1 6-2.584c.263-.044.569-.131.832-.175a17.794 17.794 0 0 1 10.731 1.533 17.592 17.592 0 0 1-9.542 4.994z" transform="translate(-107.387)"/><g id="Group_13230" data-name="Group 13230" transform="translate(0 5.063)"><g id="Group_13228" data-name="Group 13228"><path id="Path_32171" data-name="Path 32171" class="cls-1" d="M0 11.4h1.664v7.665h10.468V11.4H13.8v17.651h-1.668V20.51H1.664v8.541H0z" transform="translate(0 -11.4)"/><path id="Path_32172" data-name="Path 32172" class="cls-1" d="M39.077 28.883c0 2.278 1.226 5.037 4.2 5.037a3.837 3.837 0 0 0 3.986-3.285h1.577c-.657 2.891-2.321 4.555-5.562 4.555-4.073 0-5.781-3.11-5.781-6.745 0-3.372 1.708-6.745 5.781-6.745s5.738 3.591 5.606 7.183zm8.278-1.314c-.088-2.365-1.577-4.555-4.073-4.555-2.584 0-3.942 2.234-4.2 4.555z" transform="translate(-21.076 -17.189)"/><path id="Path_32173" data-name="Path 32173" class="cls-1" d="M67.269 25.992c.175-2.978 2.234-4.292 5.168-4.292 2.234 0 4.686.657 4.686 4.117v6.789a.813.813 0 0 0 .92.92 1.862 1.862 0 0 0 .482-.088v1.314a3.757 3.757 0 0 1-1.007.088c-1.577 0-1.84-.92-1.84-2.234h-.044a4.836 4.836 0 0 1-4.643 2.584c-2.365 0-4.292-1.183-4.292-3.723 0-3.548 3.5-3.723 6.833-4.117 1.27-.131 2.015-.35 2.015-1.752 0-2.1-1.489-2.628-3.329-2.628-1.971 0-3.329.876-3.416 2.978h-1.533zm8.322 1.883h-.044c-.219.35-.876.482-1.314.569-2.628.482-5.913.482-5.913 2.934a2.645 2.645 0 0 0 2.847 2.54c2.409 0 4.467-1.489 4.467-3.986v-2.056z" transform="translate(-37.487 -17.189)"/><path id="Path_32174" data-name="Path 32174" class="cls-1" d="M97.7 11.4h1.577v17.651H97.7z" transform="translate(-54.909 -11.4)"/><path id="Path_32175" data-name="Path 32175" class="cls-1" d="M108.1 11.4h1.577v2.5H108.1zm0 4.905h1.577v12.746H108.1z" transform="translate(-60.754 -11.4)"/><path id="Path_32176" data-name="Path 32176" class="cls-1" d="M118.5 22.094h1.577v2.19h.044a4.382 4.382 0 0 1 4.073-2.584c3.591 0 4.686 1.883 4.686 4.905V34.8h-1.58v-7.888c0-2.19-.7-3.854-3.241-3.854-2.5 0-3.942 1.883-3.986 4.38v7.446H118.5z" transform="translate(-66.599 -17.189)"/><path id="Path_32177" data-name="Path 32177" class="cls-1" d="M158.831 33.832c0 3.81-1.533 6.132-5.65 6.132-2.54 0-5.081-1.183-5.3-3.854h1.577c.307 1.883 2.015 2.54 3.723 2.54 2.891 0 4.117-1.664 4.117-4.818V32.08h-.044a4.351 4.351 0 0 1-4.073 2.628c-4.073 0-5.781-2.891-5.781-6.57 0-3.5 2.059-6.438 5.781-6.438a4.552 4.552 0 0 1 4.073 2.584h.044v-2.19h1.577v11.738zm-1.577-5.519c0-2.5-1.139-5.3-4.117-5.3s-4.2 2.628-4.2 5.3c0 2.584 1.314 5.081 4.2 5.081 2.716 0 4.118-2.494 4.118-5.08z" transform="translate(-82.841 -17.189)"/></g><g id="Group_13229" data-name="Group 13229" transform="translate(139.234 .219)"><path id="Path_32178" data-name="Path 32178" class="cls-1" d="M317.9 11.9h1.664v7.665h10.468V11.9h1.668v17.651h-1.664v-8.585h-10.472v8.541H317.9z" transform="translate(-317.9 -11.9)"/><path id="Path_32179" data-name="Path 32179" class="cls-1" d="M367.488 28.945c0 3.679-2.146 6.745-6.044 6.745s-6.044-3.11-6.044-6.745 2.146-6.745 6.044-6.745 6.044 3.11 6.044 6.745zm-10.512 0c0 2.715 1.489 5.431 4.467 5.431s4.467-2.759 4.467-5.431-1.489-5.431-4.467-5.431-4.466 2.759-4.466 5.431z" transform="translate(-338.976 -17.689)"/><path id="Path_32180" data-name="Path 32180" class="cls-1" d="M388.4 11.9h1.577v17.651H388.4z" transform="translate(-357.522 -11.9)"/><path id="Path_32181" data-name="Path 32181" class="cls-1" d="M398.8 11.9h1.577v2.5H398.8zm0 4.862h1.577v12.745H398.8z" transform="translate(-363.367 -11.9)"/><path id="Path_32182" data-name="Path 32182" class="cls-1" d="M419.682 29.551h-1.445v-2.409h-.044a5.061 5.061 0 0 1-4.555 2.8c-3.9 0-5.738-3.11-5.738-6.745s1.84-6.745 5.738-6.745a4.55 4.55 0 0 1 4.424 2.8h.044V11.9h1.577zm-6.044-.964c3.285 0 4.467-2.8 4.467-5.431s-1.183-5.431-4.467-5.431c-2.978 0-4.161 2.8-4.161 5.431s1.223 5.431 4.161 5.431z" transform="translate(-368.482 -11.9)"/><path id="Path_32183" data-name="Path 32183" class="cls-1" d="M440.469 26.492c.175-2.978 2.234-4.292 5.168-4.292 2.234 0 4.686.657 4.686 4.117v6.745a.813.813 0 0 0 .92.92 1.862 1.862 0 0 0 .482-.088v1.314a3.757 3.757 0 0 1-1.007.088c-1.577 0-1.84-.92-1.84-2.234h-.044a4.836 4.836 0 0 1-4.643 2.584c-2.365 0-4.292-1.183-4.292-3.723 0-3.548 3.5-3.723 6.833-4.117 1.27-.131 2.015-.35 2.015-1.752 0-2.1-1.489-2.628-3.329-2.628-1.971 0-3.329.876-3.416 2.978h-1.533zm8.322 1.883h-.044c-.219.35-.876.482-1.314.569-2.628.482-5.913.482-5.913 2.934a2.645 2.645 0 0 0 2.847 2.54c2.409 0 4.467-1.489 4.467-3.986v-2.056z" transform="translate(-386.466 -17.689)"/><path id="Path_32184" data-name="Path 32184" class="cls-1" d="M467.6 23h1.664l4.2 10.862L477.411 23h1.577l-5.519 14.716c-.92 2.146-1.4 2.759-3.372 2.759a5.488 5.488 0 0 1-1.183-.131V39.03a4.32 4.32 0 0 0 1.051.131c1.4 0 1.708-.832 2.234-2.015l.526-1.445z" transform="translate(-402.034 -18.138)"/><path id="Path_32185" data-name="Path 32185" class="cls-1" d="M503.709 26.317c-.088-1.927-1.577-2.8-3.329-2.8-1.4 0-3.022.526-3.022 2.19 0 1.358 1.577 1.883 2.628 2.146l2.059.482c1.8.263 3.635 1.314 3.635 3.548 0 2.759-2.759 3.81-5.124 3.81-2.978 0-4.949-1.358-5.256-4.511h1.577c.131 2.1 1.664 3.2 3.767 3.2 1.489 0 3.5-.657 3.5-2.409 0-1.489-1.4-1.971-2.8-2.321l-2.015-.438c-2.015-.526-3.548-1.27-3.548-3.416 0-2.584 2.54-3.591 4.774-3.591 2.584 0 4.555 1.314 4.686 4.117h-1.533z" transform="translate(-417.602 -17.689)"/></g></g></g></svg>