<svg xmlns="http://www.w3.org/2000/svg" viewBox="-12057.079 -22800 172.4 45.701"><defs><style>.cls-1{fill:#87bde6}.cls-2{fill:#e73d30}.cls-3{fill:#d59127}.cls-4{fill:#7b879a}.cls-5{fill:#bd8d23}.cls-6{fill:#a51e22}.cls-7{fill:#464b34}.cls-8{fill:#fff}</style></defs><g id="Group_13535" data-name="Group 13535" transform="translate(-12057.079 -22800)"><path id="Rectangle_5626" data-name="Rectangle 5626" class="cls-1" transform="translate(41.322 31.196)" d="M0 0h6.294v14.504H0z"/><path id="Rectangle_5627" data-name="Rectangle 5627" class="cls-2" transform="translate(12.041 31.196)" d="M0 0h24.081v14.504H0z"/><path id="Rectangle_5628" data-name="Rectangle 5628" class="cls-3" transform="translate(0 31.196)" d="M0 0h8.21v14.504H0z"/><path id="Rectangle_5629" data-name="Rectangle 5629" class="cls-4" transform="translate(50.352 31.196)" d="M0 0h10.672v14.504H0z"/><path id="Rectangle_5630" data-name="Rectangle 5630" class="cls-5" transform="translate(65.95 31.196)" d="M0 0h14.23v14.504H0z"/><path id="Rectangle_5631" data-name="Rectangle 5631" class="cls-1" transform="translate(90.579 31.196)" d="M0 0h5.473v14.504H0z"/><path id="Rectangle_5632" data-name="Rectangle 5632" class="cls-6" transform="translate(98.515 31.196)" d="M0 0h5.473v14.504H0z"/><path id="Rectangle_5633" data-name="Rectangle 5633" class="cls-2" transform="translate(110.282 31.196)" d="M0 0h16.419v14.504H0z"/><path id="Rectangle_5634" data-name="Rectangle 5634" class="cls-7" transform="translate(129.711 31.196)" d="M0 0h24.081v14.504H0z"/><path id="Rectangle_5635" data-name="Rectangle 5635" class="cls-4" transform="translate(158.445 31.196)" d="M0 0h4.652v14.504H0z"/><path id="Rectangle_5636" data-name="Rectangle 5636" class="cls-6" transform="translate(166.928 31.196)" d="M0 0h5.473v14.504H0z"/><g id="Group_13540" data-name="Group 13540" transform="translate(6.02)"><path id="Path_32615" data-name="Path 32615" class="cls-8" d="M11.231 8.62c0-1.368-.821-2.189-2.463-2.189A10.057 10.057 0 0 0 4.389 7.8L2.747 4.516A14.218 14.218 0 0 1 9.589 2.6c4.1 0 6.568 2.463 6.568 7.389v9.3h-4.1l-.274-1.916a6.853 6.853 0 0 1-4.926 2.189A4.68 4.68 0 0 1 2.2 14.641c0-3.284 2.737-5.2 9.031-6.021zm-2.737 7.115a3.8 3.8 0 0 0 2.737-1.368v-2.736c-3.558.547-4.653 1.369-4.653 2.736.274 1.095.822 1.368 1.916 1.368z" transform="translate(-2.2 4.515)"/><path id="Path_32616" data-name="Path 32616" class="cls-8" d="M18.972 4.2a3.471 3.471 0 0 0-1.642-.274c-1.095 0-1.916.547-1.916 2.463v1.1h3.01v3.831h-3.01v12.588h-4.925V11.046H8.3V7.489l2.189-.274v-.821C10.489 2.837 12.131.1 16.51.1a10.206 10.206 0 0 1 3.284.547z" transform="translate(8.393 .174)"/><path id="Path_32617" data-name="Path 32617" class="cls-8" d="M13.074 3.047H16.9l.274 2.737A5.481 5.481 0 0 1 21.831 2.5a4.058 4.058 0 0 1 1.916.274l-.821 4.1a3.471 3.471 0 0 0-1.643-.274 4.141 4.141 0 0 0-3.557 3.01v9.578H12.8V3.047z" transform="translate(16.207 4.341)"/><path id="Path_32618" data-name="Path 32618" class="cls-8" d="M17.5 2.463A2.527 2.527 0 0 1 20.237 0a2.527 2.527 0 0 1 2.737 2.463 2.527 2.527 0 0 1-2.737 2.463A2.516 2.516 0 0 1 17.5 2.463zm.547 4.926h4.926v16.145h-4.926z" transform="translate(24.369)"/><path id="Path_32619" data-name="Path 32619" class="cls-8" d="M29.083 2.6a6.6 6.6 0 0 1 4.652 1.916l-2.189 3.01a2.489 2.489 0 0 0-2.189-1.095c-2.463 0-3.831 1.916-3.831 4.652s1.642 4.652 3.557 4.652a5.738 5.738 0 0 0 3.01-1.095l1.916 3.01a8.365 8.365 0 0 1-5.473 1.916c-4.652 0-7.936-3.01-7.936-8.483A8.182 8.182 0 0 1 29.083 2.6z" transform="translate(29.752 4.515)"/><path id="Path_32620" data-name="Path 32620" class="cls-8" d="M35.342 8.968A2.3 2.3 0 0 0 32.879 6.5 10.057 10.057 0 0 0 28.5 7.873l-1.641-3.284A12.661 12.661 0 0 1 33.7 2.4c4.1 0 6.568 2.463 6.568 7.389v9.3h-3.831l-.547-1.368c-1.368 1.095-3.01 2.189-4.652 2.189a4.741 4.741 0 0 1-4.926-4.926c-.274-3.284 2.463-5.195 9.03-6.016zm-2.737 7.115a3.8 3.8 0 0 0 2.737-1.368v-2.737c-3.557.547-4.652 1.368-4.652 2.737 0 1.094.821 1.368 1.916 1.368z" transform="translate(39.639 4.168)"/><path id="Path_32621" data-name="Path 32621" class="cls-8" d="M34.663 7.768H32.2V5.852l2.463-.274.274-4.378h2.189v4.378H41.5v2.19h-4.374v8.757c.274 2.189.821 3.284 2.737 3.284a5.073 5.073 0 0 0 1.916-.547l.547 1.916a9.838 9.838 0 0 1-3.01.547c-3.284 0-4.652-2.189-4.652-5.2V7.768z" transform="translate(49.896 2.084)"/><path id="Path_32622" data-name="Path 32622" class="cls-8" d="M37.174 2.974h2.189l.274 3.01C40.731 4.068 42.373 2.7 44.289 2.7a2.963 2.963 0 0 1 1.642.274l-.547 2.463a2.963 2.963 0 0 0-1.642-.274c-1.368 0-3.01 1.095-4.1 3.557v10.126H36.9V2.974z" transform="translate(58.057 4.689)"/><path id="Path_32623" data-name="Path 32623" class="cls-8" d="M50.189 9.168c0-1.916-.821-4.1-3.284-4.1A7.9 7.9 0 0 0 42.253 6.7l-1.095-1.911A13.161 13.161 0 0 1 47.452 2.6c3.831 0 5.473 2.463 5.473 6.568v9.851h-2.189l-.274-1.642a8.006 8.006 0 0 1-5.2 2.189 4.311 4.311 0 0 1-4.652-4.652c-.273-3.283 2.737-5.199 9.579-5.746zm-4.378 8.21c1.642 0 2.737-.821 4.378-2.189V10.81c-5.473.547-7.115 1.916-7.115 4.1a2.516 2.516 0 0 0 2.736 2.467z" transform="translate(64.472 4.515)"/><path id="Path_32624" data-name="Path 32624" class="cls-8" d="M46.1 2.8h2.737l3.01 9.031a42.213 42.213 0 0 1 1.368 4.652 29.9 29.9 0 0 0 1.368-4.652l3.01-9.031h2.737l-5.747 15.872H51.3z" transform="translate(74.034 4.862)"/><path id="Path_32625" data-name="Path 32625" class="cls-8" d="M59.215 2.7c4.1 0 6.294 3.01 6.294 7.389v1.368H54.837c0 3.557 2.189 5.747 5.2 5.747a7.374 7.374 0 0 0 4.1-1.368l.821 1.642a9.764 9.764 0 0 1-5.2 1.642c-4.378 0-7.662-3.01-7.662-8.21s3.561-8.21 7.119-8.21zm4.1 7.115c0-3.284-1.368-4.926-3.831-4.926-2.189 0-4.378 1.916-4.652 4.926z" transform="translate(84.453 4.689)"/><path id="Path_32626" data-name="Path 32626" class="cls-8" d="M58.5.1h2.737v20.25c0 .821.274 1.095.821 1.095h.542l.274 1.916c-.274.274-.821.274-1.642.274-1.916 0-2.737-1.368-2.737-3.557z" transform="translate(95.566 .174)"/></g></g></svg>