<svg xmlns="http://www.w3.org/2000/svg" viewBox="-6177 -21009 37.3 20.4"><defs><style>.cls-1{fill:#ffdd19}.cls-2{fill:#fff}</style></defs><g id="Group_14596" data-name="Group 14596" transform="translate(-6177 -21009)"><path id="Path_32734" data-name="Path 32734" class="cls-1" d="M8.9 5.2a6.274 6.274 0 0 0-6.3 6.3.9.9 0 0 0 1.8 0A4.546 4.546 0 0 1 8.9 7a.9.9 0 0 0 0-1.8z"/><path id="Path_32735" data-name="Path 32735" class="cls-1" d="M28.3 5.2a6.274 6.274 0 0 0-6.3 6.3.9.9 0 1 0 1.8 0 4.439 4.439 0 0 1 4.4-4.4.9.9 0 0 0 .9-.9c0-.5-.2-1-.8-1z"/><path id="Path_32736" data-name="Path 32736" class="cls-2" d="M34.7 5.2a8.767 8.767 0 0 0-6.3-2.6 8.423 8.423 0 0 0-2.7.4c-1.3-.3-2.7-.5-4-.7A3.336 3.336 0 0 0 18.6 0a3.212 3.212 0 0 0-3 2.3 26.986 26.986 0 0 0-4.1.7 8.423 8.423 0 0 0-2.7-.4 8.9 8.9 0 1 0 9 9.3h1.7a8.9 8.9 0 0 0 17.8-.4 9.2 9.2 0 0 0-2.6-6.3zm.7 6.3a6.882 6.882 0 0 1-2.1 5 7.119 7.119 0 0 1-5 2.1 7 7 0 1 1 0-14 6.778 6.778 0 0 1 7.1 6.9zM18.6 1.8a1.324 1.324 0 0 1 1.3 1.3 1.3 1.3 0 1 1-2.6 0 1.4 1.4 0 0 1 1.3-1.3zM23 4.4a9.178 9.178 0 0 0-3.4 5.6h-2a9.139 9.139 0 0 0-3.4-5.7c.5-.1 1-.1 1.5-.2a3.1 3.1 0 0 0 5.8 0zm-7.1 7.1a7 7 0 1 1-7-7 6.9 6.9 0 0 1 7 7z"/></g></svg>